<svg xmlns="http://www.w3.org/2000/svg" width="13" height="13" viewBox="0 0 256 256" version="1.1"><path d="" stroke="none" fill="#d4d4d4" fill-rule="evenodd"/><path d="M 104 15.538 C 75.838 21.741, 54.260 33.493, 35.934 52.608 C 27.260 61.656, 16.540 75.642, 13.789 81.500 C 12.756 83.700, 10.959 87.075, 9.797 89 C 8.635 90.925, 7.116 94.750, 6.423 97.500 C 5.730 100.250, 4.035 106.325, 2.657 111 C 0.415 118.607, 0.142 121.392, 0.053 137.500 C -0.058 157.770, 1.223 167.383, 5.978 181.933 C 9.440 192.526, 16.268 206.256, 22.183 214.516 L 26.243 220.186 31.057 215.444 L 35.872 210.701 31.878 204.821 C 17.351 183.429, 10.061 154.834, 12.816 130.055 C 18.737 76.808, 58.380 35.376, 110.996 27.445 C 153.859 20.983, 198.004 40.287, 221.834 75.913 C 235.644 96.559, 242 117.073, 242 141 C 242 172.092, 229.585 201.672, 207.347 223.565 L 199.154 231.630 202.647 236.065 C 204.568 238.504, 206.524 240.893, 206.994 241.374 C 209.407 243.844, 229.706 221.678, 238.135 207.368 C 246.630 192.946, 253.092 175.151, 254.566 162.117 C 254.944 158.774, 255.656 156.287, 256.147 156.591 C 256.661 156.909, 256.962 148.534, 256.857 136.821 C 256.757 125.644, 256.351 117.850, 255.956 119.500 L 255.237 122.500 255.117 119 C 254.908 112.882, 250.261 95.725, 247.075 89.306 C 245.384 85.899, 244 82.482, 244 81.711 C 244 80.940, 243.100 79.495, 242 78.500 C 240.900 77.505, 240 76.274, 240 75.765 C 240 74.129, 225.513 57.703, 216.815 49.477 C 202.974 36.386, 189.370 27.776, 173 21.748 C 164.281 18.537, 158.949 17.121, 144.174 14.092 C 135.119 12.236, 115.843 12.930, 104 15.538 M 117.217 38.036 C 74.969 42.472, 40.228 71.687, 27.336 113.622 C 24.794 121.891, 24.603 123.770, 24.553 141 C 24.507 157.243, 24.779 160.537, 26.789 168 C 29.041 176.360, 38.115 196.212, 41.820 200.884 L 43.711 203.269 48.106 198.525 C 50.523 195.916, 52.639 193.414, 52.809 192.964 C 52.979 192.515, 51.939 190.279, 50.498 187.997 C 47.010 182.472, 42.410 170.828, 40.370 162.363 C 37.934 152.253, 38.180 131.864, 40.861 121.758 C 47.543 96.566, 60.608 78.855, 82.170 65.761 C 95.582 57.615, 109.909 53.823, 127.500 53.761 C 141.940 53.711, 149.358 55.074, 161.847 60.075 C 177.564 66.369, 195.568 81.470, 203.831 95.292 C 213.843 112.039, 217.527 126.673, 216.704 146.419 C 216.088 161.194, 214.559 167.801, 209.009 179.692 C 203.783 190.885, 198.783 198.148, 190.821 206.110 L 184.085 212.846 188.128 217.923 C 190.351 220.715, 192.575 223, 193.069 223 C 195.066 223, 209.044 207.743, 214.342 199.781 C 225.875 182.447, 230.898 167.282, 231.731 147.273 C 232.357 132.239, 231.190 122.556, 227.300 110.500 C 221.850 93.613, 213.854 80.638, 201.093 67.972 C 187.906 54.885, 173.895 46.569, 156.574 41.550 C 149.126 39.391, 130.880 36.745, 126.144 37.136 C 125.240 37.210, 121.223 37.616, 117.217 38.036 M 114.500 63.004 C 68.218 71.319, 38.577 118.029, 51.057 162.979 C 53.394 171.394, 59.877 185.053, 61.461 184.898 C 62.032 184.842, 64.387 182.687, 66.693 180.109 L 70.886 175.422 67.490 166.961 C 61.153 151.173, 60.584 136.239, 65.728 120.676 C 72.099 101.400, 87.321 86.234, 107.024 79.531 C 114.510 76.984, 116.901 76.648, 127.500 76.648 C 138.060 76.648, 140.502 76.989, 147.852 79.490 C 167.784 86.273, 182.718 101.177, 189.469 121.024 C 192.016 128.510, 192.352 130.901, 192.352 141.500 C 192.352 152.099, 192.016 154.490, 189.469 161.976 C 186.204 171.575, 179.204 182.714, 172.627 188.776 L 168.188 192.868 172.344 198.386 C 174.630 201.421, 176.848 203.925, 177.272 203.952 C 178.633 204.037, 187.167 195.666, 191.006 190.480 C 198.508 180.348, 203.261 170.123, 206.103 158 C 207.917 150.262, 207.679 131.999, 205.656 123.681 C 199.942 100.195, 181.858 78.359, 160.227 68.826 C 147.779 63.340, 127.207 60.721, 114.500 63.004 M 125.833 94.750 C 125.650 95.162, 119.650 98.414, 112.500 101.975 C 105.350 105.535, 99.275 108.711, 99 109.031 C 98.725 109.352, 96.925 110.237, 95 111 C 93.075 111.763, 91.275 112.638, 91 112.945 C 90.725 113.252, 89.298 114.122, 87.830 114.878 C 83.368 117.175, 84.336 118.031, 101.500 126.965 C 106.450 129.541, 112.975 133.017, 116 134.688 C 127.013 140.773, 127.170 140.771, 140.081 134.468 C 146.361 131.401, 154.200 127.375, 157.500 125.520 C 160.800 123.665, 164.918 121.409, 166.651 120.507 C 170.624 118.438, 171.639 115.333, 168.647 114.400 C 167.466 114.032, 166.275 113.454, 166 113.115 C 165.081 111.984, 156.829 108, 155.405 108 C 154.632 108, 153.996 107.662, 153.992 107.250 C 153.983 106.373, 149.158 104, 147.384 104 C 146.714 104, 146.017 103.658, 145.833 103.241 C 145.399 102.252, 128.856 93.981, 127.333 93.992 C 126.692 93.996, 126.017 94.338, 125.833 94.750 M 0.272 122 C 0.272 124.475, 0.467 125.487, 0.706 124.250 C 0.944 123.013, 0.944 120.987, 0.706 119.750 C 0.467 118.513, 0.272 119.525, 0.272 122 M 84.607 124.582 C 84.273 125.452, 84 135.917, 84 147.839 L 84 169.514 57.399 196.007 C 42.769 210.578, 30.163 223.963, 29.386 225.750 C 28.171 228.546, 28.170 229.471, 29.381 232.369 C 31.925 238.458, 37.242 240.517, 42.800 237.566 C 44.285 236.777, 57.816 223.783, 72.869 208.691 C 93.607 187.897, 100.693 181.368, 102.119 181.741 C 103.153 182.012, 104 182.547, 104 182.930 C 104 183.313, 105.575 184.245, 107.500 185 C 109.425 185.755, 111 186.739, 111 187.187 C 111 187.634, 111.675 188, 112.500 188 C 113.325 188, 114 188.344, 114 188.764 C 114 189.807, 121.542 193, 124.007 193 C 125.943 193, 126 192.309, 125.990 168.750 L 125.980 144.500 112.304 137.500 C 104.782 133.650, 97.125 129.493, 95.287 128.261 C 91.838 125.951, 86.436 123, 85.657 123 C 85.413 123, 84.941 123.712, 84.607 124.582 M 163 128.570 C 158.325 131.070, 149.667 135.452, 143.759 138.308 L 133.018 143.500 133.009 168.250 C 133.002 188.852, 133.236 193, 134.406 193 C 135.631 193, 149.829 186.062, 155.500 182.692 C 163.638 177.855, 170.697 172.812, 171.750 171.082 C 173.139 168.799, 173.615 123.990, 172.250 124.012 C 171.838 124.019, 167.675 126.070, 163 128.570 M 0.402 143 C 0.402 151.525, 0.556 155.012, 0.743 150.750 C 0.931 146.488, 0.931 139.512, 0.743 135.250 C 0.556 130.988, 0.402 134.475, 0.402 143" stroke="none" fill="#fcfcfc" fill-rule="evenodd"/></svg>